FFmpeg version SVN-r25716, Copyright (c) 2000-2010 the FFmpeg developers  built on Nov 10 2010 12:23:18 with gcc 4.1.2 20080704 (Red Hat 4.1.2-48)  configuration: --enable-libmp3lame --enable-shared --disable-mmx --arch=x86_64  libavutil     50.33. 0 / 50.33. 0  libavcore      0.12. 1 /  0.12. 1  libavcodec    52.94. 4 / 52.94. 4  libavformat   52.84. 0 / 52.84. 0  libavdevice   52. 2. 2 / 52. 2. 2  libavfilter    1.59. 0 /  1.59. 0  libswscale     0.12. 0 /  0.12. 0Seems stream 0 codec frame rate differs from container frame rate: 1200.00 (1200/1) -> 15.00 (15/1)Input #0, mov,mp4,m4a,3gp,3g2,mj2, from '/RAID10/data/converted_video_files/15789.mov':  Metadata:    major_brand     : qt      minor_version   : 537199360    compatible_brands: qt    Duration: 00:00:15.00, start: 0.000000, bitrate: 9277 kb/s    Stream #0.0(eng): Video: h264, yuv420p, 640x480, 9272 kb/s, 15 fps, 15 tbr, 600 tbn, 1200 tbc[buffer @ 0x1cb70e0] w:640 h:480 pixfmt:yuv420pOutput #0, flv, to '/RAID10/data/converted_video_files/15789.flv':  Metadata:    encoder         : Lavf52.84.0    Stream #0.0(eng): Video: flv, yuv420p, 640x480, q=2-31, 600 kb/s, 1k tbn, 24 tbcStream mapping:  Stream #0.0 -> #0.0Press [q] to stop encodingframe=   10 fps=  0 q=18.3 size=     775kB time=0.62 bitrate=10156.9kbits/s    frame=   27 fps= 26 q=31.0 size=     802kB time=1.75 bitrate=3753.7kbits/s    frame=   47 fps= 30 q=31.0 size=     818kB time=3.12 bitrate=2146.3kbits/s    frame=   72 fps= 33 q=31.0 size=     847kB time=4.75 bitrate=1459.9kbits/s    frame=   85 fps= 33 q=24.8 size=     870kB time=5.62 bitrate=1266.6kbits/s    frame=  106 fps= 35 q=31.0 size=     888kB time=7.04 bitrate=1033.6kbits/s    frame=  130 fps= 36 q=31.0 size=     920kB time=8.62 bitrate= 874.1kbits/s    frame=  156 fps= 38 q=19.4 size=     971kB time=10.38 bitrate= 766.9kbits/s    frame=  182 fps= 40 q=20.7 size=    1078kB time=12.12 bitrate= 728.7kbits/s    frame=  208 fps= 41 q=20.3 size=    1177kB time=13.83 bitrate= 697.0kbits/s    frame=  225 fps= 41 q=19.4 Lsize=    1240kB time=14.96 bitrate= 679.3kbits/s    video:1237kB audio:0kB global headers:0kB muxing overhead 0.300848%